<mxfile host="app.diagrams.net" modified="2024-06-19T01:58:14.645Z" agent="Mozilla/5.0 (Macintosh; Intel Mac OS X 10_15_7) AppleWebKit/537.36 (KHTML, like Gecko) Chrome/125.0.0.0 Safari/537.36" etag="YM67ImXHEjxsjgCeESku" version="24.4.2" type="device">
  <diagram name="Page-1" id="uPT5TZPzOPrnh4ysFEue">
    <mxGraphModel dx="821" dy="521" grid="1" gridSize="10" guides="1" tooltips="1" connect="1" arrows="1" fold="1" page="1" pageScale="1" pageWidth="850" pageHeight="1100" math="0" shadow="0">
      <root>
        <mxCell id="0" />
        <mxCell id="1" parent="0" />
        <mxCell id="UtldLLg9z21MGQ7EYthO-1" value="" style="html=1;shape=mxgraph.basic.isocube;isoAngle=15;" vertex="1" parent="1">
          <mxGeometry x="250" y="210" width="100" height="100" as="geometry" />
        </mxCell>
        <mxCell id="UtldLLg9z21MGQ7EYthO-2" value="" style="html=1;shape=mxgraph.basic.isocube;isoAngle=15;" vertex="1" parent="1">
          <mxGeometry x="400" y="210" width="100" height="100" as="geometry" />
        </mxCell>
        <mxCell id="UtldLLg9z21MGQ7EYthO-3" value="" style="html=1;shape=mxgraph.basic.isocube;isoAngle=15;" vertex="1" parent="1">
          <mxGeometry x="550" y="210" width="100" height="100" as="geometry" />
        </mxCell>
        <mxCell id="UtldLLg9z21MGQ7EYthO-4" value="" style="endArrow=none;dashed=1;html=1;rounded=0;exitX=1;exitY=0.5;exitDx=0;exitDy=0;exitPerimeter=0;entryX=0;entryY=0.5;entryDx=0;entryDy=0;entryPerimeter=0;" edge="1" parent="1" source="UtldLLg9z21MGQ7EYthO-1" target="UtldLLg9z21MGQ7EYthO-2">
          <mxGeometry width="50" height="50" relative="1" as="geometry">
            <mxPoint x="460" y="340" as="sourcePoint" />
            <mxPoint x="510" y="290" as="targetPoint" />
          </mxGeometry>
        </mxCell>
        <mxCell id="UtldLLg9z21MGQ7EYthO-5" value="" style="endArrow=none;dashed=1;html=1;rounded=0;exitX=1;exitY=0.5;exitDx=0;exitDy=0;exitPerimeter=0;entryX=0;entryY=0.5;entryDx=0;entryDy=0;entryPerimeter=0;" edge="1" parent="1" source="UtldLLg9z21MGQ7EYthO-2" target="UtldLLg9z21MGQ7EYthO-3">
          <mxGeometry width="50" height="50" relative="1" as="geometry">
            <mxPoint x="360" y="270" as="sourcePoint" />
            <mxPoint x="410" y="270" as="targetPoint" />
          </mxGeometry>
        </mxCell>
        <mxCell id="UtldLLg9z21MGQ7EYthO-6" value="AID Server" style="shape=cylinder3;whiteSpace=wrap;html=1;boundedLbl=1;backgroundOutline=1;size=15;" vertex="1" parent="1">
          <mxGeometry x="335" y="370" width="90" height="110" as="geometry" />
        </mxCell>
        <mxCell id="UtldLLg9z21MGQ7EYthO-7" value="AID Server" style="shape=cylinder3;whiteSpace=wrap;html=1;boundedLbl=1;backgroundOutline=1;size=15;" vertex="1" parent="1">
          <mxGeometry x="490" y="370" width="90" height="110" as="geometry" />
        </mxCell>
        <mxCell id="UtldLLg9z21MGQ7EYthO-8" value="" style="endArrow=classic;startArrow=classic;html=1;rounded=0;exitX=0.5;exitY=0;exitDx=0;exitDy=0;exitPerimeter=0;entryX=0.258;entryY=0.872;entryDx=0;entryDy=0;entryPerimeter=0;" edge="1" parent="1" source="UtldLLg9z21MGQ7EYthO-7" target="UtldLLg9z21MGQ7EYthO-3">
          <mxGeometry width="50" height="50" relative="1" as="geometry">
            <mxPoint x="470" y="380" as="sourcePoint" />
            <mxPoint x="520" y="330" as="targetPoint" />
          </mxGeometry>
        </mxCell>
        <mxCell id="UtldLLg9z21MGQ7EYthO-9" value="" style="endArrow=classic;startArrow=classic;html=1;rounded=0;exitX=0.5;exitY=0;exitDx=0;exitDy=0;exitPerimeter=0;entryX=0.208;entryY=0.872;entryDx=0;entryDy=0;entryPerimeter=0;" edge="1" parent="1" source="UtldLLg9z21MGQ7EYthO-6" target="UtldLLg9z21MGQ7EYthO-2">
          <mxGeometry width="50" height="50" relative="1" as="geometry">
            <mxPoint x="470" y="380" as="sourcePoint" />
            <mxPoint x="520" y="330" as="targetPoint" />
          </mxGeometry>
        </mxCell>
        <mxCell id="UtldLLg9z21MGQ7EYthO-10" value="" style="shape=actor;whiteSpace=wrap;html=1;" vertex="1" parent="1">
          <mxGeometry x="235" y="615" width="40" height="60" as="geometry" />
        </mxCell>
        <mxCell id="UtldLLg9z21MGQ7EYthO-15" value="APP" style="whiteSpace=wrap;html=1;aspect=fixed;" vertex="1" parent="1">
          <mxGeometry x="227.5" y="550" width="55" height="55" as="geometry" />
        </mxCell>
        <mxCell id="UtldLLg9z21MGQ7EYthO-16" value="" style="shape=actor;whiteSpace=wrap;html=1;" vertex="1" parent="1">
          <mxGeometry x="302.5" y="615" width="40" height="60" as="geometry" />
        </mxCell>
        <mxCell id="UtldLLg9z21MGQ7EYthO-17" value="APP" style="whiteSpace=wrap;html=1;aspect=fixed;" vertex="1" parent="1">
          <mxGeometry x="295" y="550" width="55" height="55" as="geometry" />
        </mxCell>
        <mxCell id="UtldLLg9z21MGQ7EYthO-18" value="" style="shape=actor;whiteSpace=wrap;html=1;" vertex="1" parent="1">
          <mxGeometry x="367.5" y="615" width="40" height="60" as="geometry" />
        </mxCell>
        <mxCell id="UtldLLg9z21MGQ7EYthO-19" value="APP" style="whiteSpace=wrap;html=1;aspect=fixed;" vertex="1" parent="1">
          <mxGeometry x="360" y="550" width="55" height="55" as="geometry" />
        </mxCell>
        <mxCell id="UtldLLg9z21MGQ7EYthO-20" value="" style="endArrow=classic;html=1;rounded=0;exitX=0.5;exitY=0;exitDx=0;exitDy=0;entryX=0.5;entryY=1;entryDx=0;entryDy=0;entryPerimeter=0;" edge="1" parent="1" source="UtldLLg9z21MGQ7EYthO-15" target="UtldLLg9z21MGQ7EYthO-6">
          <mxGeometry width="50" height="50" relative="1" as="geometry">
            <mxPoint x="252.5" y="530" as="sourcePoint" />
            <mxPoint x="302.5" y="480" as="targetPoint" />
          </mxGeometry>
        </mxCell>
        <mxCell id="UtldLLg9z21MGQ7EYthO-21" value="" style="endArrow=classic;html=1;rounded=0;exitX=0.5;exitY=0;exitDx=0;exitDy=0;entryX=0.5;entryY=1;entryDx=0;entryDy=0;entryPerimeter=0;" edge="1" parent="1" source="UtldLLg9z21MGQ7EYthO-17" target="UtldLLg9z21MGQ7EYthO-6">
          <mxGeometry width="50" height="50" relative="1" as="geometry">
            <mxPoint x="470" y="530" as="sourcePoint" />
            <mxPoint x="520" y="480" as="targetPoint" />
          </mxGeometry>
        </mxCell>
        <mxCell id="UtldLLg9z21MGQ7EYthO-22" value="" style="endArrow=classic;html=1;rounded=0;exitX=0.5;exitY=0;exitDx=0;exitDy=0;entryX=0.5;entryY=1;entryDx=0;entryDy=0;entryPerimeter=0;" edge="1" parent="1" source="UtldLLg9z21MGQ7EYthO-19" target="UtldLLg9z21MGQ7EYthO-7">
          <mxGeometry width="50" height="50" relative="1" as="geometry">
            <mxPoint x="470" y="530" as="sourcePoint" />
            <mxPoint x="520" y="480" as="targetPoint" />
          </mxGeometry>
        </mxCell>
        <mxCell id="UtldLLg9z21MGQ7EYthO-24" value="Service" style="shape=card;whiteSpace=wrap;html=1;" vertex="1" parent="1">
          <mxGeometry x="550" y="580" width="100" height="110" as="geometry" />
        </mxCell>
        <mxCell id="UtldLLg9z21MGQ7EYthO-27" value="" style="endArrow=classic;startArrow=classic;html=1;rounded=0;entryX=1;entryY=0.5;entryDx=0;entryDy=0;entryPerimeter=0;exitX=0;exitY=0;exitDx=65;exitDy=0;exitPerimeter=0;" edge="1" parent="1" source="UtldLLg9z21MGQ7EYthO-24" target="UtldLLg9z21MGQ7EYthO-7">
          <mxGeometry width="50" height="50" relative="1" as="geometry">
            <mxPoint x="590" y="510" as="sourcePoint" />
            <mxPoint x="640" y="460" as="targetPoint" />
            <Array as="points">
              <mxPoint x="615" y="425" />
            </Array>
          </mxGeometry>
        </mxCell>
        <mxCell id="UtldLLg9z21MGQ7EYthO-28" style="edgeStyle=orthogonalEdgeStyle;rounded=0;orthogonalLoop=1;jettySize=auto;html=1;exitX=0;exitY=0;exitDx=0;exitDy=70;exitPerimeter=0;entryX=0.991;entryY=0.599;entryDx=0;entryDy=0;entryPerimeter=0;" edge="1" parent="1" source="UtldLLg9z21MGQ7EYthO-24" target="UtldLLg9z21MGQ7EYthO-18">
          <mxGeometry relative="1" as="geometry" />
        </mxCell>
      </root>
    </mxGraphModel>
  </diagram>
</mxfile>
